<?xml version="1.0" encoding="UTF-8"?>
<svg id="Layer_1" xmlns="http://www.w3.org/2000/svg" version="1.1" viewBox="0 0 520 518">
  <!-- Generator: Adobe Illustrator 30.1.0, SVG Export Plug-In . SVG Version: 2.1.1 Build 136)  -->
  <defs>
    <style>
      .st0 {
        fill: #fff;
      }
    </style>
  </defs>
  <path class="st0" d="M443.9,430.8c-99.4,106.4-266.4,106.9-366.3,2.5C28.5,381.8,3.4,312.1,8.4,241.5,15.1,145.8,75.8,62.4,164.5,26c23.2-9.5,47.3-15.6,72.8-17.6s43.7-.9,62.6,2.2c114.3,18.6,201.5,112.6,210.8,228.1,5.7,70.4-18,139.9-66.7,192ZM242.5,144.2l47.9,115h7.3l-.8-114.7h27.2s.4,114.7.4,114.7h17.6c0,0,.4-114.9.4-114.9h27.2c0,0,46.5,72.3,48.6,74.8-.3-3.1,0-74.7,0-74.7h27.4c0,0,.3,114.7.3,114.7h48.8c.4-11.3-.3-21.3-1.7-31.9-14.9-109.8-105.1-194.7-215.6-203-12,0-24.1-.8-35.9,0C118.8,33.5,24.2,136.5,24,259.1l52.5.2c2.3,0,5.2,0,7.3,0,0,0-6.7-4.6-11.4-9.5-12.4-13.1-18-28.8-17.9-46.7.2-28.4,19-54.6,47.3-59.8,21.7-4,43.3,2.1,57.9,19.2-5.7,6.9-11.3,12.9-17.7,19.7-6.3-9.9-15.4-14.9-25.6-15.3-10.3-.4-19.7,5.1-25.6,14.1-9.7,15-9.3,34.5,1.1,48.8,9.6,13.3,26.4,16.3,39.8,7.2s10.2-10.3,9.1-17.7l-26.9-.3-.2-20.9h55.1c0,9,.5,17.4-.3,26.1-1.1,13.6-8.5,25-18.9,32.6s-4.6,2.6-4.6,2.6c0,0,19.4.4,25.6.2,1.5-3.5,2.3-4.6,4.5-10.2l42.2-104.8,24.9-.2ZM244,216.4l-13.7-35.8c-2,1.7-13.5,36.1-13.5,36.1l27.2-.4ZM414.4,259.1l-44.3-69.4v69.4c0,0,44.3,0,44.3,0ZM260.3,259l-6.7-18.1h-46.3s-6.7,18.3-6.7,18.3l59.7-.2ZM105.3,363.9c9.9-3.9,14.5-11.8,16.2-21.7s-1.7-15.6-7.8-21c-14.1-12.3-36-13.8-32.5-24.4s21.1-4.6,29.1.5l8.5-16.6c-16.5-12-43.7-13.4-55.1,5.6s-3,28.2,10,35.1l20.1,10.6c3.3,1.7,5.2,6,4.2,9.1-2.2,6.9-13,7.9-18.1,6s-11.1-5.3-17.2-9.2c-3.8,5.2-7.2,10.8-10.5,17.4,15,12.2,34.5,15.8,53,8.5ZM329.2,329l-.3-18.7-29.9-.2.4-18.1h30.6c0,0,0-18,0-18l-52,.2v91.8c.1,0,51.9-.1,51.9-.1v-18.6c-.1,0-30.8-.3-30.8-.3v-17.6s30.1-.2,30.1-.2ZM393.9,329v-18.6c0,0-30.1-.4-30.1-.4v-18s31.2,0,31.2,0v-17.8c0,0-52.8-.2-52.8-.2v91.9c0,0,52.9-.1,52.9-.1v-18.7c-.1,0-31.2-.2-31.2-.2v-17.7s30.1-.2,30.1-.2ZM444,365.6v-73.3c0,0,21.4-.1,21.4-.1l.2-18h-64.2s.1,17.6.1,17.6h21.4c0,.1.2,74,.2,74l20.9-.2ZM168.5,309.8c0-6.3-.2-11.7,0-17.8l21.4-.2v-17.8c0,0-64.5,0-64.5,0v17.6c0,0,21.7.7,21.7.7v73.3c0,0,21.4.1,21.4.1v-56ZM273.4,365.3l-30.7-37.1c3.5-2.5,7.3-4.1,10-6.7,9.3-9.1,11.1-24.2,4.2-35.4s-12-11.8-19.8-11.9l-39.1-.2v91.7c0,0,20.8,0,20.8,0l.8-34.9,27.4,35,26.4-.5ZM420.8,430.8c12.7-12,24.4-24.4,33.7-39.8H64.6c9.9,15.4,21.4,28.2,33.8,39.9,90.1,85.1,232.2,85.4,322.4,0Z"/>
  <path class="st0" d="M238.4,303c0,4.8-2.1,8.9-7.1,10.4s-7.8.9-12.2.6v-22.1c4.1-1.8,12.1-1.4,15.8,1.7s3.5,5.8,3.5,9.4Z"/>
</svg>