<?xml version="1.0" encoding="utf-8"?>
<!-- Generator: Adobe Illustrator 30.6.0, SVG Export Plug-In . SVG Version: 9.03 Build 0)  -->
<svg version="1.0" id="Layer_1" xmlns="http://www.w3.org/2000/svg" xmlns:xlink="http://www.w3.org/1999/xlink" x="0px" y="0px"
	 viewBox="0 0 579.9 115.9" style="enable-background:new 0 0 579.9 115.9;" xml:space="preserve">
<style type="text/css">
	.st0{fill:#FFB703;}
	.st1{fill:#063152;}
</style>
<g>
	<path class="st0" d="M197.1,87.8l0.1-37.1l23.7,37.1H238l-0.2-61.5l-14.7,0c0,0-0.1,38.5,0,40.2c-1.2-1.3-26.2-40.3-26.2-40.3
		l-14.6,0l-0.2,61.5H197.1z"/>
	<polygon class="st0" points="172.6,87.8 172.4,26.3 157.8,26.3 158.2,87.8 	"/>
	<path class="st0" d="M42.9,87.8c0,0,7.1,4.5,16.9,4.3c9.8-0.2,17-4.3,17-4.3c0.6-0.3,1.6-0.9,1.9-1.1c5.6-4.1,9.5-10.2,10.1-17.5
		c0.4-4.7,0.1-9.2,0.1-14l-29.6,0l0.1,11.2L74,66.5c0.6,4-1.7,7.4-4.9,9.5c-7.2,4.9-16.2,3.3-21.4-3.9C42,64.5,41.8,54,47,45.9
		c3.1-4.8,8.2-7.8,13.8-7.6c5.5,0.2,10.4,2.9,13.8,8.2C78,42.9,81,39.7,84.1,36c-7.9-9.2-19.5-12.5-31.1-10.3
		c-15.2,2.8-25.3,16.9-25.4,32.1c-0.1,9.7,2.9,18.1,9.6,25.1C39.1,85,41.9,87.1,42.9,87.8z"/>
	<path class="st0" d="M106.1,87.8l3.5-9.6l24.9,0l3.6,9.6h16.1l-25.6-61.6l-13.4,0.1L92.5,82.7c-1.1,2.8-1.5,3.5-2.3,5.1H106.1z
		 M122,45.8l7.3,19.2l-14.6,0.2C114.7,65.2,120.9,46.7,122,45.8z"/>
</g>
<g id="_x39_Vii2O_00000099657261684980111810000009790780473303404687_">
	<g>
		<path class="st1" d="M372.3,62.9l20.6,24.8l-17.6,0.4l-18.5-23.6L356.3,88l-13.8,0l-0.1-61.6l25.7,0.1c1.8,0,3.5,0.3,5.2,0.9
			c3.6,1.4,6.7,3.9,8.7,7.3c4.3,7.3,3.4,16.6-2.2,22.9c-1,1.1-2.2,2-3.5,2.8L372.3,62.9z M369.3,48c0.4-1.9,0.2-3.9-0.4-5.8
			c-0.6-1.7-1.8-3.1-3.5-3.7c-2.9-1.1-6-1.2-9-0.2l0,15C361.2,53.6,368.1,54,369.3,48z"/>
		<polygon class="st1" points="474,63.3 453.8,63.4 453.8,75.5 463.8,75.5 474.7,75.6 474.8,88 439.4,88.1 439.3,26.4 474.8,26.5 
			474.8,38.4 453.8,38.4 453.8,50.6 474,50.9 		"/>
		<path class="st1" d="M280.9,86.4c-4,1.8-8.1,2.7-12.4,2.9c-8.7,0.4-17.3-2.6-24.1-8.2c2.1-4.1,4.3-7.9,7-11.6l5.1,3.1
			c2.2,1.2,4.4,2.3,6.8,3.2c3,0.8,6.2,0.6,8.9-0.9c1.5-0.8,2.7-2.1,3-3.9c0.3-2.3-1-4.5-3-5.6l-13.8-7.3
			c-6.9-3.7-10.6-11.7-8.2-19.4c1.7-5.5,5.9-9.9,11.3-12c2.6-1,5.2-1.5,8.1-1.7c6.9-0.2,13.7,1.9,19.4,5.9L283.3,42
			c-3.4-2-6.9-3.4-10.8-4c-1.7-0.2-3.3-0.2-4.9,0.2c-2.1,0.5-3.6,1.9-4.1,4c-0.3,1.5,0.1,2.9,1.2,3.9c1,1,2.2,1.9,3.6,2.5l5.8,2.7
			c2.1,1,4.1,1.9,6,3c2.2,1.2,4.1,2.6,5.9,4.3c3.5,3.3,5.3,8,4.8,12.9C290.1,77.9,287,83.7,280.9,86.4z"/>
		<polygon class="st1" points="410.3,63.5 410.3,75.4 418.1,75.5 430.9,75.6 431,88 396.2,88.1 396.2,46.6 396.2,26.5 431,26.4 
			431,38.4 410.4,38.4 410.2,50.7 430.3,50.8 430.5,63.3 		"/>
		<polygon class="st1" points="322.4,48.8 322.5,88.1 308.2,88 308.1,38.7 293.5,38.2 293.5,26.5 336.9,26.5 336.8,38.3 322.5,38.5 
					"/>
		<polygon class="st1" points="507.7,87.9 493.8,88.1 493.7,61.9 493.6,38.4 479.2,38.3 479.2,26.5 522.3,26.5 522.1,38.6 
			507.8,38.6 		"/>
	</g>
</g>
<circle class="st0" cx="533.3" cy="78.6" r="9.8"/>
</svg>
