<?xml version="1.0" encoding="utf-8"?>
<!-- Generator: Adobe Illustrator 30.6.0, SVG Export Plug-In . SVG Version: 9.03 Build 0)  -->
<svg version="1.0" id="Layer_1" xmlns="http://www.w3.org/2000/svg" xmlns:xlink="http://www.w3.org/1999/xlink" x="0px" y="0px"
	 viewBox="0 0 1184 1512" style="enable-background:new 0 0 1184 1512;" xml:space="preserve">
<g>
	<path d="M894.1,698.5c-4.3-2.2-2-7.1,0.1-9.2l22.1-22.1c1.7-1.7,5.7-3.6,7.9-1.4l12.1,11.9l15.5-6l-4.3-12.3
		c-0.4-1.1-0.2-3.9,0.4-4.9c0.7-1.2,3.4-2.6,4.9-2.6l34.4,0c2.6,0,4.8,2.4,4.9,5.1l0,15.9l15,6.9l6.2-12.6c1.1-2.3,5.8-3.5,7.9-1.4
		l25.6,25.6c1.2,1.2,0.1,6.1-1.2,7.4l-10.9,10.8l5.6,15.6l13.9-4.8c3.1-1.1,6.1,2.7,6.1,5.6l-0.1,34.2c0,2.5-2.8,4.9-5.1,5l-16,0
		l-7,15.1l11.4,5.5c1.4,0.7,3.5,2.7,3.7,4.1c0.4,1.8-1,4.7-2.4,6.1l-23.1,23.1c-2.1,2.1-6.1,1.8-8.2-0.3l-10.5-10.9l-15.7,5.9
		l4.6,12.8c0.6,1.7-0.8,6.5-2.8,6.6l-14,0.3l0,22.9c0,2.1-2.5,5.2-5.3,5.2l-273.6,0c-3-0.5-5.3-2.5-5.3-5.5l0-96.8L594,759
		c-13,0-22.2-11.6-22.1-23.9l0-64.1c1.7-11.6,11.1-20.6,23.1-20.6l95.9,0l0-169.9l-96.9-0.1c-11.9,0-21-10.1-22.1-21.2l0.2-66.1
		c0-11.1,10.6-21.1,21.8-21.1l97-0.1l0-62.7c0-2.8,2.3-4.8,5.3-5.3l272.6,0c3.4,0,6.3,2,6.3,5.2l0.1,22.8
		c40.1,3.1,69.7,37.3,68.1,76.8c-1.6,39-34.5,70.4-73.7,70.4c-39.2,0-71.9-31.3-73.5-70.4c-1.6-39.3,27.7-73.7,67.9-76.8l-0.1-17.2
		l-261.9,0l0,57.2l97.1,0c11.7,0.8,21.8,10.2,21.8,22.3l0,64c0,11.8-9.4,21-20.8,22.4l-98,0l0,79.6l125.7,0l0.2-27.1
		c0.1-11.4,10.2-21.9,22.2-21.9l203.8,0c12.8,0,22.8,10.7,22.8,23l0.1,62.1c0,12.5-9.8,23.6-23,23.6l-203.5,0
		c-13.1,0-22.5-11.4-22.5-23.5l0-25.5l-125.7,0l-0.1,79.7l97,0c11.8,0.9,21.9,10.4,22,22.7l0.1,63.9c-1.1,12.2-9.7,21.3-22,22.2
		l-97,0l0,91.1l261.9,0l0.2-17.1l-11.1,0.1c-3.8,0-6-2.4-6-6.2l0.1-14.9l-15.1-7l-5.4,11.5c-1,2.1-5.5,5.7-8.2,3l-24.1-23.9
		c-1.9-1.9-3.6-5.7-1.4-7.9l11.9-12l-6-15.6l-13.8,4.7c-2.6,0.9-6.1-2.3-6.1-4.9l-0.1-34.2c0-2.9,2.4-5.6,5.4-5.6l15.9-0.1l6.8-15.2
		L894.1,698.5z M959,343.6c-35.1,6-57.3,39.4-51.2,73.1c6.2,33.7,38.4,56.2,71.9,50.6c34.3-5.7,57.4-38,51.6-72.3
		C1025.7,361.4,993.9,337.6,959,343.6z M809.9,456.5l0-62.4c-0.8-6.4-5-11.6-12-11.6l-202.8,0c-6.5,0-12.3,4.9-12.3,11.5l-0.1,63
		c0,6.8,5.2,12.3,12.4,12.3l202.7,0C804.9,469.3,809.9,463.6,809.9,456.5z M1053.3,608.9c7.2,0,12.2-6,12.2-12.1l0-62.6
		c0-6.2-4.9-12.2-11.7-12.2l-202.7,0c-7.7,0-12.6,5.8-12.6,13l0,61c0,7.1,5.1,12.9,12.6,12.9L1053.3,608.9z M799.3,748
		c6.4-1.2,10.6-6.1,10.6-12.1l0-62.8c0-6.4-5.4-12-12-12l-201.7,0c-6.3,0-13.2,4.3-13.2,11l0,65c0,7,6.8,11,13.2,11L799.3,748z
		 M978.5,822.3l-3.9-12.1c-0.9-2.7,1.4-5.8,4.3-6.3c17.1-3,24.2-11.5,28.3-7.4l10.8,10.8l14.7-14.7l-11.7-5.7
		c-2.5-1.2-3.1-5.2-1.6-7.4c4.6-6.9,7.8-13.3,10-21.3c0.6-2,3.4-4.1,5.5-4.1l14.7,0l-0.1-20.6l-13.8,4.3c-1.7,0.5-4.7-2.8-5-4.6
		c-2.9-17.6-11.3-24.2-7.2-28.3l10.8-10.8l-14.8-14.6l-5.3,11c-1.4,2.9-5.1,4.1-7.9,2.2c-15-10.4-25.5-8.5-25.5-15.4l-0.1-14.8
		l-20.4,0l4.2,13.8c0.6,1.9-3.3,4.9-5.1,5.2c-15.6,2.7-23.7,11-26.9,7.8l-11.6-11.6l-14.5,14.8l11.5,5.5c2.6,1.3,3.1,5.2,1.5,7.6
		c-4.6,6.8-7.7,13.4-10,21.3c-0.6,2.3-3.2,4.2-5.5,4.2l-14.8,0.1l0,20.9l11.5-4.2c3-1.1,6.6,0.5,7.3,3.9c1.5,8.1,3.7,15.1,8,22.4
		c0.9,1.5,0.4,4.9-0.8,6.1l-10.6,10.6l14.8,14.6l5-10.7c0.5-1.1,3-3,4.3-3.1c3.5-0.5,10.5,7,25.5,11.4c1.8,0.5,3.7,3.1,3.7,4.9
		l-0.1,14.7L978.5,822.3z"/>
	<path d="M796.5,1389.1c26.6,3.5,45.4,26.2,44,52c-1.4,26.1-23,46.7-49,47c-26.1,0.2-48.1-19.9-49.9-46.3
		c-1.8-25.7,16.9-49.3,43.9-52.6l0-74.3l-47.6-0.2l-52.3-0.3c-16.3-0.1-30.8-6.9-43.6-17.1l-21.7,12.5c5.5,16.3-0.6,33.1-14.8,41.2
		c-13.9,7.9-31.9,5.1-42.4-7.5c-10.3-12.3-11.1-30.6-0.1-43.6c13.6-16,38.2-15.8,52,0.2l18.6-10.6c-11.5-13.2-19-28.8-20.3-46.8
		c-2.3-32.5,15.8-62.2,45.1-76.4c2.5-9.2,6.3-17,12.6-24.2l-42.4-24.5c-15.8,21.4-45,26.5-66.9,12.1c-21.8-14.2-29-43.2-16.1-65.7
		c13.1-22.8,41.4-31.9,64.9-20.2c23.7,11.7,34.2,39.7,23.7,64.2l45,26.1c10.6-7.7,23.4-12.1,36.4-12.3
		c17.8-19.6,42.6-29.2,69.9-25.6l0.1-75.3c-26-3-45.1-25.6-44.1-51.1c1-26.5,22.8-47.5,49-47.7c26-0.2,48.1,20,49.9,46
		c1.8,25.9-16.9,49.5-43.9,52.8l0,77.7c7.7,2.4,13.6,5.2,19.7,9.1c30.3-19.8,72.2-8,85.9,26.7l45.4-26.2c-8.1-20.5-3.4-42.8,12.8-57
		c15.7-13.8,38.9-16.6,57.9-5.5c17.7,10.4,27.4,30.8,23.4,52.2c-3.6,19.4-18.4,34.1-36.3,38.5c-19.9,4.9-40-2.3-52.3-18.7
		l-47.2,27.3l0.8,15.8c26.4,5.3,48.4,25.1,57,48.9c10.2,28.2,4.5,57.4-15.2,79.7l18.7,10.8c12.2-14.4,33.4-16.2,47.8-4.2
		c13.4,11.2,15.6,29.8,6.5,43.9c-9.3,14.4-27.9,19.7-43.6,11.8c-14.8-7.4-22.6-25.2-16.4-41.9l-21.6-12.5
		c-13.3,10.7-28.9,17.2-45.9,17.3l-24,0.1l-73.4-0.1L796.5,1389.1z M785,933.5c-21.8,3.5-35.5,23.9-32.1,44.2
		c3.5,20.7,23.2,35,43.4,31.9c21.3-3.2,35.8-22.9,32.5-44.1C825.6,945.3,806.6,930,785,933.5z M581,1050.6
		c-21.7,4.6-34,25.7-29.7,45.7c4.5,20.6,24.8,33.4,44.4,29.7c21.7-4.1,35-24.5,30.8-45.4C622.5,1060.1,602.5,1046.1,581,1050.6z
		 M985,1050.7c-21.7,4.7-33.9,25.7-29.4,46.1c4.6,20.3,24.9,33.3,44.9,29.1c21.1-4.4,34.4-24.6,30.2-45.3
		C1026.7,1060,1006.7,1046,985,1050.7z M807.4,1303.6l0-64.3c0-2.7,3.2-5,5.6-5l37,0c2.6,0,6.4,2,6.4,5l0.1,64.4l13.4,0l0-96.6
		c0-3.6,2.7-5.9,6-5.9l37.9,0c2.9,0.5,5.3,2.7,5.3,5.8l0,90.4c27.7-13,42.8-42.3,37.5-72.2c-5-28.2-27.9-50.9-57.5-54.5
		c-2.2-0.3-4.8-3.4-4.3-5.7c3.8-19.8-5.6-38.8-21.8-48.9c-16.9-10.5-38.2-9.2-53.9,3c-1,0.8-4.1,0.7-5.1,0
		c-24.7-17.7-58.8-17-82.1,2.7l-11.8,11.6c-25.9-2.1-48,14.9-51.9,40.8c-25,9.3-41.6,31.1-43.6,57.6c-2.6,35.2,21.1,65.8,57.2,71.3
		l0.1-75.1c0-2.3,3-4.5,5.1-4.9l38,0c3.2,0,5.9,2.6,5.9,5.9l0,74.7l13.5-0.2l0-113.9c0-2.7,3-4.8,5.4-4.8l38.3,0
		c2.2,0,5.4,1.9,5.4,4.6l0,114.3L807.4,1303.6z M782.5,1303.7l0-108l-26.8,0.1l0,108L782.5,1303.7z M907.9,1301.6l0-89.6l-26.9,0
		l0,91.6C890.3,1304,898.9,1303.7,907.9,1301.6z M719.9,1303.7l0-69.3l-26.8,0l0,69.4L719.9,1303.7z M845.1,1303.7l0-58.5l-26.8,0.1
		l0,58.4L845.1,1303.7z M584.1,1299.6c-13.4,3.1-20.5,15.6-17.3,27.9c3,11.4,14.9,19,26.6,16.4c12.3-2.7,20.1-14.7,17.7-26.6
		C608.6,1305.2,596.9,1296.7,584.1,1299.6z M989,1299.5c-13.4,2.6-20.7,14.9-17.8,27.5c2.6,11.4,14.1,19.5,26.2,17.1
		c11.9-2.4,19.8-13.9,18-25.9C1013.6,1306.2,1002,1297,989,1299.5z M784,1400.5c-21.9,4-34.8,24.7-30.9,45
		c4,20.7,23.9,34.3,43.9,30.8c21.5-3.7,35.4-23.6,31.6-44.7C825,1411.2,805.5,1396.6,784,1400.5z"/>
	<path d="M409.7,467.9c-5.3-1.7-5.7-10.5-9.9-12.4c-7.3-3.4-8.7,6.4-15.1,9c-2.7,1.1-6.7-1.9-8.9-3.1c-3.6-2-7-3.6-9.4-7l2.2-8.9
		c0.8-3.1,0.8-5.3-1-7.7c-3.3-4.3-12,1.3-17-3l-5.4-18.3l11.7-7.1c1.7-1,2.2-5.5,1.4-8.1l-38.6,30.8l0,54.7c0,1.6-2,4.4-3.5,5.1
		l-44.2,22.1c-1,0.5-3.6,0.5-4.6,0.1c-1.2-0.5-3-3.1-3-4.5l-0.1-77.5l-117.3-93.8c-1.3-1-2.9-3.9-2.9-5.2l0-15.4
		c-11.3-0.1-19.8-8.8-20.1-19.2c-0.2-11.1,8.3-20.4,20.2-20.4l294.7,0c12,0,21,7.9,21.3,19.5c0.4,10.8-8.6,20.1-20.1,20l-0.2,18.4
		L404,364.8c9.7,6.1,11.4-5.8,17-7.8c1.7-0.6,5.4,0.9,7,1.9l10.9,6.6c1.5,7.3-4.3,13.1-1.7,16.9c4.1,5.9,9.9,1,17.9,3.5l5.4,19.4
		l-11.5,6.9c-1.6,0.8-2.8,6-1.3,7.4l8.1,7.9c2.4,2.3,0.3,6.5-1.3,9c-2.2,3.3-3.8,7.9-6.8,10.3c-6.5,1.9-11.9-4.6-16.6-1.3
		c-5.4,3.9-0.6,9.5-3.1,17.5L409.7,467.9z M439.7,306.8c6,0,9.8-4.1,9.6-9.3c-0.1-4.5-3.9-8.7-9.5-8.7l-295.6,0c-5.8,0-9,4-9.5,8.8
		c-0.4,4.3,3.3,9.1,8.9,9.1L439.7,306.8z M358.6,373.9l9.2,2.3c3.3,0.8,5.4,1.4,8-0.9c1.4-1.2,1.6-3.7,1.6-6.4l0.2-10.1l11.5-4
		c3.1-1.1,6.6-1.1,9.9-0.1l30.1-23.9l-0.2-13.3l-274,0l0,13.4l120,95.9l0.1,73.6l34-17l0-56.5l40.8-32.8c-0.9-3.5-0.3-6.2,1.4-8.8
		L358.6,373.9z M418.5,454.7l0-11.7l12-8.8c2.3-1.7,8.4,1.3,11.7,2.2c1.2-1.1,3.4-4.3,3.5-5.1l-8.7-8.4l1.8-16.2l9.4-5.5
		c1.2-0.7,0.9-4.2,0.1-5.2c-2.2-2.8-11.3,1.4-13.9-2l-8.5-11.3c-0.3-3,1.7-8.3,2.8-11.8l-5.4-3l-8.5,8.8l-14.8-1.8
		c-4-0.5-4.8-11.9-9.7-10.3c-3.4,1.1-3.1,2.1-3.1,5.4l0,8.2l-12.6,9.8l-11.1-2.7c-1.7,0-3.6,4.6-2.2,5.9l7.5,7.3l-1.6,15.8l-9.9,6.4
		c-1.6,1,0.3,5.9,2.3,5.8c3.9-0.2,8.3-0.4,11.3,0.2l8.8,11.9c0.9,2.8-1.4,8.2-2.7,11.8l5.6,3.1l7.7-8.7c5.7,0.2,11.8,0.9,17,2.2
		l5.6,10.2C414.8,457.1,418.1,455.8,418.5,454.7z"/>
	<path d="M386.3,258.9c-0.8,1.5-3.6,3.1-4.9,3.1s-3.6-1.7-4.3-3L361,230.8c-0.6-1-0.5-3.4,0-4.4c0.5-1,2.8-2.4,4.1-2.4l11.2-0.1
		c0.1-6.7-0.4-13.1,1.4-19.6c2.8-10.4,12.9-17.8,23.7-17.9l39.9-0.4c6.1-0.1,12-7.1,12.1-12.8l0.2-13.2l-48.6,0
		c-2.4,0-5.6-2.4-5.6-5.3l0-125.6c0-2.9,2.3-5.8,5.1-5.8l71.1,0l32.4,32.5l0,97.9c0,3.4-2.4,6.2-5.9,6.2l-37.7,0l-0.2,12.2
		c-0.2,13-10.7,24.6-24,24.7l-38.1,0.2c-8.3,0.1-14.9,6.7-15,14.8l-0.1,12l13.1,0.4c1.7,0.1,3.4,4.7,2.5,6.3L386.3,258.9z
		 M471.7,63.6c-2-0.8-3.6-3-4.2-5.1l0-24.5L410,34l0,115.2l87.2,0l0-85.7L471.7,63.6z M489.3,52.7l-10.9-10.9l-0.1,11L489.3,52.7z"
		/>
	<path d="M211.8,259.4c-0.6,1.1-3.3,2.5-4.4,2.5c-1.3,0-3.6-1.5-4.4-3l-16.1-27.9c-0.6-1.1-0.6-3.7,0-4.7c0.5-1,2.9-2.3,4-2.3
		l11.3-0.1l-0.1-12.1c0-8.3-6.9-14.8-15.2-14.9l-39.1-0.3c-13.4-0.1-22.9-12.9-22.9-25.5l0-11.2l-43.1,0c-2.6,0-5.7-2.3-5.7-5.2
		l0-126.7c0-2.4,2.7-4.5,4.9-4.8l70.7,0L184.7,56l0,99.9c0,2.5-4.7,4.2-6.6,4.2l-42.4-0.1l0.1,12c0.1,8.6,7,14.3,15.1,14.3l36,0
		c14.4,0,25.8,11.2,25.8,25.6l0,12c5,0.1,9.3-0.1,13.9,0.8c2.7,0.5,1.9,5.8,0.9,7.6L211.8,259.4z M149.3,63.5
		c-2.8-0.4-4.9-2.7-5.1-5.6l0-23.9L87,34l0,115.2l87,0l0-85.7L149.3,63.5z M166.1,52.6l-11-11.1l-0.2,11.4L166.1,52.6z"/>
	<path d="M298.8,259.5c-0.6,1.1-3.2,2.6-4.4,2.5c-1.3-0.1-3.6-1.6-4.4-3l-16.1-28c-0.6-1.1-0.6-3.7,0-4.6c0.6-0.9,2.9-2.3,4-2.3
		l11.3-0.1l0-63.9l-46.2,0c-2.6,0-4.8-2.4-5.2-5.1l0-126.7c0.5-1.9,2.8-4.9,4.5-4.9l71.3,0l32.6,32.9l0,97.8c0.2,3.4-2,5.7-5.3,6
		l-41,0l0,64c4.4,0,9.7-0.3,13.3,0.7c4,1.1,2,6.3,0.8,8.4L298.8,259.5z M309.9,63.5c-2.1-1.2-3.7-3.3-3.9-5.3L306,34l-57.5,0
		l0,115.2l86.9,0l0-85.7L309.9,63.5z M327.3,52.5l-10.4-10.4l-0.4,10.8L327.3,52.5z"/>
	<path d="M775.9,695.8l-158.8,0c-3.6,0-5.8-1.6-6.5-4.4c-0.6-2.4,1-6.6,4.4-6.6l162.8,0c3.4,0,4.7,4.2,4.2,6.6
		C781.6,693.9,779.3,695.8,775.9,695.8z"/>
	<path d="M750.6,724.6l-135.1,0c-2.6,0-4.8-3.3-4.9-5.1c-0.1-2.2,1.6-5.7,4.5-5.7l135.8,0c2.9,0,5.2,3.7,5,5.6
		C755.7,721.8,753.6,724.6,750.6,724.6z"/>
	<path d="M1034.3,556.1l-163.2,0c-3.3,0-5.3-3.1-5.2-5.6c0.1-2.4,2.3-5.1,5.5-5.1l160.2,0c2.9,0,5.3,1.5,6.1,3.4
		C1038.6,550.6,1037.9,556.1,1034.3,556.1z"/>
	<path d="M1008.1,585.2l-136.1,0.1c-3.3,0-5.7-2.2-6.1-4.9c-0.3-2.4,1.9-6.3,5.2-6.3l135.5,0c2.1,0,4,3,4.5,4.5
		C1011.7,580.2,1010.4,584.7,1008.1,585.2z"/>
	<path d="M778.1,417l-163.9,0c-2.2,0-3.8-4-3.7-5.6c0.1-2,1.7-5.4,4.7-5.4l162.6,0c2.4,0,4.1,3.1,4.4,4.6
		C782.5,412.4,781.7,417,778.1,417z"/>
	<path d="M750.8,445.9l-133.7,0c-3.6,0-6.1-1.6-6.5-4.3c-0.5-3.6,1.4-6.5,5.5-6.5l134.7,0c2.9,0,5.1,3.3,5.2,5.5
		C756.1,442.7,753.7,445.9,750.8,445.9z"/>
	<path d="M955.2,426.7l-14.5-14.6c-1.9-1.9-1.3-6.1,0.4-7.5c2.4-2,5.7-1.7,7.8,0.4l10.2,10.4l31.7-31.7c1.8-1.8,5.5-1.5,7.1-0.1
		c1.9,1.7,2.5,5.6,0.4,7.7l-36.1,36.1C961,428.6,956.4,428,955.2,426.7z"/>
	<path d="M940,767.5c-15-17.6-11.3-43.4,7.1-56.4c17.5-12.3,40.8-8.4,53.4,8.1c12.7,16.6,9.8,40.4-6.4,53.5
		C977.9,785.7,954.1,784.2,940,767.5z M971,770.5c11-0.6,19.8-7.5,23.5-15.9c4.5-10,3.4-20.7-3.1-29.2c-8.1-10.7-22.8-13.7-34.9-7.5
		c-11.3,5.7-17.4,19-13.7,32.3C946.1,761.8,957.2,771.2,971,770.5z"/>
	<path d="M861.1,1226.4l-58.1,0c-3.8-0.2-5.9-2.8-5.9-6.4l0-43.2l-56,0l0,34.3c0,2.9-2.1,5.1-5,5.3l-61.1-0.1c-2.4,0-4.7-3.1-4.9-5
		c-0.2-2.2,2-5.8,4.9-5.8l55.1-0.1l0-33.7c0-2.9,2-5.6,4.9-6l68.1,0c2.7-0.1,5,2.3,5,5.1l0,44.4l46.8,0.1l0.1-34.5
		c0-3.3,2.8-6,6-5.8l27.2,0c2.7,0,5.1,3.3,5.1,5.3c0,3.7-2.5,5.8-6.2,5.8l-21.1,0l0,34.8C865.9,1223.5,863.8,1226.4,861.1,1226.4z"
		/>
	<path d="M396.1,386.7c14.1-4,27.4,4.2,31,17.5c3.6,13.1-4.1,27-17.6,30.7c-12.8,3.5-26.5-3.7-30.4-16.5
		C374.9,405.2,381.7,390.8,396.1,386.7z M401.7,395.5c-8.9,0.6-14.9,8.6-14,17c0.8,8.1,8.1,14.2,16.7,13.6
		c7.9-0.6,14.3-7.8,13.8-16.4C417.6,401.7,411,394.9,401.7,395.5z"/>
	<polygon points="483.9,85.6 423.2,85.6 423.2,74.9 483.8,74.9 	"/>
	<polygon points="483.8,133.2 423.2,133.2 423.2,122.4 483.9,122.4 	"/>
	<polygon points="465,109.4 423.4,109.4 423.2,98.7 464.9,98.7 	"/>
	<polygon points="456.1,63.7 423.1,63.7 423.2,52.9 456.1,52.9 	"/>
	<polygon points="484,109.3 472.9,109.4 472.8,98.7 483.7,98.6 	"/>
	<polygon points="160.7,85.6 100.1,85.6 100.1,74.9 160.7,74.9 	"/>
	<polygon points="160.7,109.4 100.3,109.4 100.1,98.7 160.7,98.7 	"/>
	<polygon points="160.7,133.1 120,133.2 119.9,122.4 160.8,122.4 	"/>
	<polygon points="133,63.7 100.1,63.7 100.1,52.9 133,52.9 	"/>
	<polygon points="110.7,133.2 100,133.1 100,122.4 110.8,122.4 	"/>
	<polygon points="322.2,133.2 261.8,133.2 261.7,122.4 322.3,122.4 	"/>
	<polygon points="322.2,109.4 261.8,109.4 261.8,98.7 322.2,98.7 	"/>
	<polygon points="322.3,85.6 281.7,85.7 281.6,74.9 322.2,74.9 	"/>
	<polygon points="294.7,63.7 261.7,63.7 261.7,52.9 294.6,52.9 	"/>
	<polygon points="272.4,85.6 261.6,85.6 261.7,74.9 272.3,74.9 	"/>
</g>
</svg>
